# xmcd
#
# Track frame offsets: 
#        150
#        12063
#        21723
#        37161
#        50511
#        73824
#        83852
#        99225
#        112815
#        126460
#        138978
#        149761
#        159244
#        172474
#        181537
#        195843
#        210535
#
# Disc length: 2928 seconds
#
# Revision: 0
# Processed by: cddbd v1.5.2PL0 Copyright (c) Steve Scherf et al.
# Submitted via: ExactAudioCopyFreeDBPlugin 1.0
#
DISCID=f10b6e11
DTITLE=JJ Cale - JJ Cale Original Versions
DYEAR=2014
DGENRE=Southern Blues
TTITLE0=Call Me The Breeze
TTITLE1=Rock and Roll Records
TTITLE2=SomeDay (Unreleased)
TTITLE3=Lies
TTITLE4=Sensitive Kind
TTITLE5=Cajun Moon
TTITLE6=Magnolia
TTITLE7=I Got The Same Old Blues
TTITLE8=songbird (Unreleased)
TTITLE9=Since You Said Goodbye
TTITLE10=I'll Be There 9If You Ever Want Me)
TTITLE11=The Old Man And Me
TTITLE12=Train To Nowhere (Unreleased Ver.)
TTITLE13=Starbound
TTITLE14=Don't Wait
TTITLE15=Crying Eyes
TTITLE16=After Midnight (Original 1966 Version)
EXTD=
EXTT0=
EXTT1=
EXTT2=
EXTT3=
EXTT4=
EXTT5=
EXTT6=
EXTT7=
EXTT8=
EXTT9=
EXTT10=
EXTT11=
EXTT12=
EXTT13=
EXTT14=
EXTT15=
EXTT16=
PLAYORDER=
